<?xml version="1.0"?>
<svg width="60" height="60" xmlns="http://www.w3.org/2000/svg" xmlns:svg="http://www.w3.org/2000/svg">

 <g class="layer">
  <title>Layer 1</title>
  <g id="svg_5">
   <path d="m8.33,23.48l0,-2.11l6.81,0c0.07,0.43 0.11,0.86 0.11,1.29c0,1.58 -0.42,3.54 -1.76,4.93c-1.31,1.41 -2.98,2.17 -5.19,2.17c-4.1,0 -7.55,-3.46 -7.55,-7.72s3.45,-7.72 7.55,-7.72c2.27,0 3.88,0.92 5.1,2.13l-1.43,1.49c-0.87,-0.85 -2.05,-1.51 -3.67,-1.51c-3,0 -5.34,2.5 -5.34,5.61s2.34,5.61 5.34,5.61c1.94,0 3.05,-0.81 3.76,-1.54c0.58,-0.6 0.96,-1.46 1.11,-2.63l-4.83,0z" fill="#4285f4" id="svg_6"/>
   <path d="m25.63,24.79c0,2.86 -2.16,4.97 -4.81,4.97s-4.81,-2.11 -4.81,-4.97c0,-2.88 2.16,-4.97 4.81,-4.97s4.81,2.09 4.81,4.97m-2.1,0c0,-1.79 -1.25,-3.01 -2.71,-3.01s-2.71,1.22 -2.71,3.01c0,1.77 1.25,3.01 2.71,3.01s2.71,-1.24 2.71,-3.01" fill="#ea4335" id="svg_7"/>
   <path d="m36.12,24.79c0,2.86 -2.16,4.97 -4.81,4.97s-4.81,-2.11 -4.81,-4.97c0,-2.88 2.16,-4.97 4.81,-4.97s4.81,2.09 4.81,4.97m-2.11,0c0,-1.79 -1.25,-3.01 -2.71,-3.01s-2.71,1.22 -2.71,3.01c0,1.77 1.25,3.01 2.71,3.01s2.71,-1.24 2.71,-3.01" fill="#fbbc04" id="svg_8"/>
   <path d="m46.19,20.12l0,8.93c0,3.67 -2.09,5.18 -4.56,5.18c-2.32,0 -3.72,-1.62 -4.25,-2.94l1.83,-0.79c0.33,0.81 1.12,1.77 2.41,1.77c1.58,0 2.56,-1.02 2.56,-2.92l0,-0.72l-0.07,0c-0.47,0.6 -1.38,1.13 -2.52,1.13c-2.4,0 -4.59,-2.17 -4.59,-4.95c0,-2.81 2.2,-4.99 4.59,-4.99c1.14,0 2.05,0.53 2.52,1.11l0.07,0l0,-0.81l2,0l0,0zm-1.85,4.69c0,-1.75 -1.12,-3.03 -2.56,-3.03c-1.45,0 -2.67,1.28 -2.67,3.03c0,1.73 1.21,2.99 2.67,2.99c1.44,0 2.56,-1.26 2.56,-2.99" fill="#4285f4" id="svg_9"/>
   <path d="m47.65,14.9l2.11,0l0,14.56l-2.11,0l0,-14.56z" fill="#34a853" id="svg_10"/>
   <path d="m57.89,26.43l1.63,1.13c-0.52,0.81 -1.8,2.2 -3.99,2.2c-2.72,0 -4.76,-2.18 -4.76,-4.97c0,-2.95 2.05,-4.97 4.52,-4.97c2.49,0 3.7,2.05 4.1,3.16l0.22,0.56l-6.41,2.75c0.49,1 1.25,1.51 2.32,1.51s1.81,-0.55 2.36,-1.38m-5.03,-1.79l4.29,-1.85c-0.24,-0.62 -0.94,-1.05 -1.78,-1.05c-1.07,0 -2.56,0.98 -2.5,2.9" fill="#ea4335" id="svg_11"/>
  </g>
  <g id="svg_12" transform="matrix(1, 0, 0, 1, 0, 0)">
   <path d="m11.07,33.08l1.16,0l-2.3,8.17l-1.13,0l-1.86,-5.39l-0.05,0l-1.86,5.39l-1.13,0l-2.4,-8.17l1.16,0l1.82,6.42l0.05,0l1.87,-5.33l1.04,0l1.87,5.33l0.05,0l1.72,-6.42z" fill="#5f6368" id="svg_1"/>
   <g fill="#5f6368" id="svg_2">
    <path d="m12.13,38.46c0,-0.86 0.29,-1.57 0.86,-2.13c0.58,-0.56 1.31,-0.85 2.18,-0.85s1.6,0.28 2.17,0.85c0.58,0.56 0.87,1.27 0.87,2.13c0,0.87 -0.29,1.58 -0.87,2.13c-0.57,0.56 -1.29,0.85 -2.17,0.85s-1.6,-0.28 -2.18,-0.85c-0.57,-0.56 -0.86,-1.27 -0.86,-2.13m1.11,0c0,0.6 0.18,1.09 0.55,1.46s0.83,0.56 1.38,0.56s1,-0.19 1.38,-0.56s0.55,-0.86 0.55,-1.46c0,-0.59 -0.18,-1.08 -0.55,-1.45c-0.38,-0.38 -0.84,-0.57 -1.38,-0.57s-1,0.19 -1.38,0.57c-0.37,0.37 -0.55,0.85 -0.55,1.45m6.86,2.8l-1.11,0l0,-5.59l1.06,0l0,0.91l0.05,0c0.11,-0.3 0.34,-0.55 0.69,-0.76s0.69,-0.31 1.03,-0.31c0.32,0 0.6,0.05 0.82,0.14l-0.34,1.02c-0.14,-0.05 -0.35,-0.08 -0.65,-0.08c-0.42,0 -0.78,0.16 -1.09,0.48c-0.31,0.32 -0.47,0.69 -0.47,1.12l0,3.08l0,0zm8.26,0l-1.34,0l-1.85,-2.64l-0.9,0.84l0,1.79l-1.11,0l0,-8.17l1.11,0l0,5.03l2.55,-2.45l1.42,0l0,0.04l-2.3,2.17l2.41,3.33l0,0.05z" id="svg_3"/>
    <path d="m33.15,39.7c0,0.49 -0.22,0.9 -0.67,1.23s-1.02,0.5 -1.7,0.5c-0.6,0 -1.12,-0.15 -1.57,-0.44c-0.44,-0.28 -0.78,-0.69 -0.96,-1.16l0.99,-0.4c0.15,0.34 0.36,0.6 0.63,0.78c0.26,0.18 0.58,0.28 0.91,0.28c0.35,0 0.65,-0.07 0.89,-0.22s0.35,-0.32 0.35,-0.51c0,-0.36 -0.29,-0.62 -0.87,-0.79l-1.01,-0.24c-1.15,-0.27 -1.72,-0.8 -1.72,-1.57c0,-0.51 0.22,-0.92 0.66,-1.23s1,-0.46 1.68,-0.46c0.52,0 0.99,0.12 1.42,0.35s0.72,0.55 0.89,0.95l-0.99,0.39c-0.11,-0.24 -0.31,-0.43 -0.55,-0.55c-0.26,-0.14 -0.55,-0.2 -0.85,-0.2c-0.28,0 -0.54,0.07 -0.78,0.2c-0.23,0.14 -0.34,0.31 -0.34,0.5c0,0.32 0.32,0.55 0.95,0.68l0.89,0.22c1.18,0.27 1.76,0.83 1.76,1.67m3.85,1.73c-0.43,0 -0.83,-0.09 -1.19,-0.26s-0.63,-0.41 -0.83,-0.7l-0.05,0l0.05,0.78l0,2.46l-1.11,0l0,-8.05l1.06,0l0,0.78l0.05,0c0.19,-0.29 0.47,-0.52 0.83,-0.7c0.36,-0.17 0.75,-0.26 1.19,-0.26c0.78,0 1.44,0.29 1.98,0.87c0.55,0.59 0.83,1.29 0.83,2.11c0,0.83 -0.28,1.53 -0.83,2.11c-0.54,0.58 -1.2,0.87 -1.98,0.87m-0.18,-0.96c0.53,0 0.98,-0.19 1.34,-0.57c0.36,-0.37 0.54,-0.85 0.54,-1.45c0,-0.58 -0.18,-1.07 -0.54,-1.45s-0.81,-0.57 -1.34,-0.57c-0.54,0 -0.99,0.19 -1.35,0.57c-0.35,0.38 -0.53,0.86 -0.53,1.45c0,0.59 0.18,1.08 0.53,1.46c0.36,0.37 0.81,0.56 1.35,0.56m6.03,-5c0.82,0 1.47,0.21 1.94,0.62s0.71,0.98 0.71,1.71l0,3.45l-1.06,0l0,-0.78l-0.05,0c-0.46,0.64 -1.07,0.96 -1.83,0.96c-0.65,0 -1.2,-0.18 -1.63,-0.55s-0.66,-0.82 -0.66,-1.37c0,-0.58 0.23,-1.04 0.69,-1.38s1.08,-0.51 1.85,-0.51c0.66,0 1.2,0.11 1.63,0.34l0,-0.24c0,-0.37 -0.15,-0.68 -0.46,-0.93c-0.3,-0.25 -0.68,-0.39 -1.07,-0.38c-0.62,0 -1.11,0.25 -1.47,0.74l-0.98,-0.58c0.54,-0.73 1.34,-1.1 2.39,-1.1m-1.43,4.06c0,0.27 0.12,0.5 0.37,0.68c0.25,0.18 0.53,0.27 0.86,0.27c0.47,0 0.88,-0.16 1.25,-0.49c0.37,-0.33 0.55,-0.71 0.55,-1.15c-0.35,-0.26 -0.83,-0.39 -1.45,-0.39c-0.45,0 -0.83,0.1 -1.13,0.31c-0.3,0.21 -0.45,0.46 -0.45,0.77m7.85,1.89c-0.88,0 -1.6,-0.28 -2.18,-0.85c-0.57,-0.58 -0.86,-1.29 -0.86,-2.13c0,-0.86 0.29,-1.57 0.86,-2.13c0.58,-0.56 1.31,-0.85 2.18,-0.85c0.6,0 1.13,0.14 1.58,0.43c0.45,0.28 0.79,0.68 1.01,1.18l-1.01,0.4c-0.31,-0.7 -0.86,-1.05 -1.65,-1.05c-0.51,0 -0.94,0.19 -1.31,0.58c-0.36,0.39 -0.54,0.87 -0.54,1.44s0.18,1.05 0.54,1.44c0.37,0.39 0.81,0.58 1.31,0.58c0.81,0 1.38,-0.35 1.71,-1.05l0.99,0.4c-0.22,0.5 -0.56,0.9 -1.02,1.18c-0.47,0.29 -1,0.43 -1.61,0.43m5.97,0c-0.87,0 -1.58,-0.28 -2.15,-0.85s-0.84,-1.27 -0.84,-2.13c0,-0.85 0.27,-1.56 0.82,-2.13s1.25,-0.85 2.1,-0.85c0.88,0 1.57,0.27 2.09,0.8s0.78,1.29 0.78,2.25l-0.01,0.11l-4.64,0c0.02,0.55 0.21,0.99 0.58,1.32c0.37,0.34 0.81,0.5 1.33,0.5c0.71,0 1.26,-0.34 1.66,-1l0.99,0.46c-0.25,0.46 -0.63,0.84 -1.1,1.11c-0.47,0.27 -1.01,0.4 -1.6,0.4m-1.77,-3.65l3.39,0c-0.03,-0.39 -0.2,-0.71 -0.5,-0.96s-0.7,-0.38 -1.21,-0.38c-0.42,0 -0.78,0.12 -1.08,0.37c-0.3,0.24 -0.5,0.57 -0.6,0.98" id="svg_4"/>
   </g>
  </g>
 </g>
</svg>